Coordinates
version=1
nRows=12
nColumns=28
inDegrees=yes

Units are S.I. units (second, meters, Newtons, ...)
Angles are in degrees.

endheader
time	pelvis_tilt	pelvis_list	pelvis_rotation	pelvis_tx	pelvis_ty	pelvis_tz	hip_flexion_r	hip_adduction_r	hip_rotation_r	knee_angle_r	ankle_angle_r	subtalar_angle_r	mtp_angle_r	hip_flexion_l	hip_adduction_l	hip_rotation_l	knee_angle_l	socket_flexion	socket_adduction	socket_rotation	socket_tx	socket_ty	socket_tz	foot_flex	lumbar_extension	lumbar_bending	lumbar_rotation
      0.32083333	      2.41318334	      0.86491175	     -5.20759411	     -0.44063232	      1.01532806	      0.27926664	     12.52343374	     -1.47781297	      2.81149926	    -64.83497966	      2.53785667	    -13.79035854	     26.69146767	     -2.12299085	      2.03128676	      9.82783488	      0.59429784	      0.00000000	      0.00000000	      0.00000000	      0.00000000	      0.00000000	      0.00000000	      1.68400308	    -11.15216056	     -4.20683855	      5.46462135
      0.32500000	      2.45498452	      0.59499640	     -5.07481724	     -0.43547828	      1.01587657	      0.27899448	     12.89723803	     -1.08619185	      2.83425105	    -64.38887486	      3.16816395	    -13.55492959	     26.88310987	     -2.58888972	      1.75682044	      9.95193791	      0.75271739	      0.00000000	      0.00000000	      0.00000000	      0.00000000	      0.00000000	      0.00000000	      1.74969408	    -11.22054834	     -3.86309742	      5.29480278
      0.32916667	      2.53310526	      0.40855077	     -4.91935068	     -0.43048001	      1.01633389	      0.27871029	     13.29322387	     -0.82536487	      2.79525852	    -64.00028330	      3.55214064	    -13.26495755	     27.02898620	     -3.06006697	      1.57610413	     10.07957170	      0.88066833	      0.00000000	      0.00000000	      0.00000000	      0.00000000	      0.00000000	      0.00000000	      1.86809384	    -11.34602828	     -3.62737179	      5.10577024
      0.33333333	      2.64807768	      0.17077093	     -4.71066387	     -0.42554385	      1.01684501	      0.27829817	     13.61891653	     -0.53644204	      2.68519470	    -63.55317764	      4.02211834	    -12.84515665	     27.22488091	     -3.56705778	      1.34305560	     10.25591741	      1.01475848	      0.00000000	      0.00000000	      0.00000000	      0.00000000	      0.00000000	      0.00000000	      1.96985540	    -11.52830253	     -3.32110469	      4.80428574
      0.33750000	      2.68983877	      0.05031837	     -4.55160566	     -0.42063618	      1.01714127	      0.27808184	     14.06455542	     -0.34888360	      2.64762519	    -63.12929972	      4.30552210	    -12.70178092	     27.31487633	     -3.98938481	      1.21887102	     10.37910200	      1.14809453	      0.00000000	      0.00000000	      0.00000000	      0.00000000	      0.00000000	      0.00000000	      2.08908904	    -11.59531962	     -3.18133418	      4.66030105
      0.34166667	      2.71829610	      0.04673214	     -4.41728790	     -0.41612595	      1.01731679	      0.27791815	     14.61285526	     -0.27684531	      2.63817146	    -62.78664609	      4.36679600	    -12.68881454	     27.32550751	     -4.30737547	      1.24029956	     10.38424950	      1.17342927	      0.00000000	      0.00000000	      0.00000000	      0.00000000	      0.00000000	      0.00000000	      2.13979911	    -11.74117659	     -3.18646212	      4.63879363
      0.34583333	      2.82946853	     -0.33065715	     -3.98901527	     -0.41105608	      1.01787744	      0.27724941	     14.78603240	      0.11868709	      2.32446668	    -62.07592149	      5.11502863	    -12.04784158	     27.60179851	     -4.81387081	      0.82421696	     10.75825600	      1.31629780	      0.00000000	      0.00000000	      0.00000000	      0.00000000	      0.00000000	      0.00000000	      2.29318287	    -11.90018874	     -2.65135384	      3.91006462
      0.35000000	      2.85297245	     -0.33091683	     -3.86641690	     -0.40668614	      1.01797068	      0.27712532	     15.34865999	      0.17297279	      2.31450109	    -61.70003124	      5.16605575	    -12.04662120	     27.60634679	     -5.12331025	      0.83896380	     10.75646425	      1.35148708	      0.00000000	      0.00000000	      0.00000000	      0.00000000	      0.00000000	      0.00000000	      2.35170387	    -12.04259511	     -2.66972035	      3.89721071
      0.35416667	      2.73921170	     -0.68695418	     -3.61549699	     -0.40166159	      1.01816121	      0.27686066	     15.79720999	      0.65373985	      2.22410492	    -60.97093286	      5.68012821	    -11.93981944	     27.70544220	     -5.40483080	      0.42414247	     10.90041598	      1.51420459	      0.00000000	      0.00000000	      0.00000000	      0.00000000	      0.00000000	      0.00000000	      2.53278042	    -11.91726951	     -2.22025713	      3.70192010
      0.35833333	      2.75807221	     -0.67922733	     -3.48407418	     -0.39740980	      1.01819372	      0.27675848	     16.35556705	      0.69744491	      2.20742931	    -60.54404509	      5.72885265	    -11.93383344	     27.70696298	     -5.69652877	      0.44307240	     10.89379706	      1.54377577	      0.00000000	      0.00000000	      0.00000000	      0.00000000	      0.00000000	      0.00000000	      2.58848510	    -12.07020666	     -2.25178481	      3.67495678
      0.36250000	      2.67056495	     -0.87926418	     -3.20662755	     -0.39248865	      1.01832788	      0.27650601	     16.77537775	      0.97343363	      2.10754751	    -59.75606950	      6.06477669	    -11.85198336	     27.75032794	     -5.95959009	      0.19967760	     11.02157070	      1.64876473	      0.00000000	      0.00000000	      0.00000000	      0.00000000	      0.00000000	      0.00000000	      2.77408377	    -11.96338654	     -2.02007860	      3.45197195
      0.36666667	      2.67128879	     -0.89170139	     -3.07426281	     -0.38837353	      1.01828689	      0.27637843	     17.34688605	      1.02612247	      2.06744207	    -59.28752592	      6.13819133	    -11.84396010	     27.75306820	     -6.22388366	      0.19185784	     11.01808136	      1.67959066	      0.00000000	      0.00000000	      0.00000000	      0.00000000	      0.00000000	      0.00000000	      2.82589002	    -12.13274383	     -2.01801400	      3.40688370
